<?xml version="1.0" encoding="UTF-8" standalone="no"?>
<!-- Created with Inkscape (http://www.inkscape.org/) -->

<svg
   xmlns:dc="http://purl.org/dc/elements/1.1/"
   xmlns:cc="http://creativecommons.org/ns#"
   xmlns:rdf="http://www.w3.org/1999/02/22-rdf-syntax-ns#"
   xmlns:svg="http://www.w3.org/2000/svg"
   xmlns="http://www.w3.org/2000/svg"
   xmlns:xlink="http://www.w3.org/1999/xlink"
   xmlns:sodipodi="http://sodipodi.sourceforge.net/DTD/sodipodi-0.dtd"
   xmlns:inkscape="http://www.inkscape.org/namespaces/inkscape"
   width="744.09448819"
   height="1052.3622047"
   id="svg2"
   version="1.1"
   inkscape:version="0.48.4 r9939"
   sodipodi:docname="background.svg"
   inkscape:export-filename="/home/kiwaygo/Dropbox/新生手冊/cleaned/Pics/background.png"
   inkscape:export-xdpi="600.03003"
   inkscape:export-ydpi="600.03003">
  <defs
     id="defs4">
    <linearGradient
       inkscape:collect="always"
       id="linearGradient4076">
      <stop
         style="stop-color:#afc6e9;stop-opacity:1;"
         offset="0"
         id="stop4078" />
      <stop
         style="stop-color:#afc6e9;stop-opacity:0;"
         offset="1"
         id="stop4080" />
    </linearGradient>
    <linearGradient
       id="linearGradient4068">
      <stop
         style="stop-color:#000000;stop-opacity:1;"
         offset="0"
         id="stop4070" />
      <stop
         style="stop-color:#000000;stop-opacity:0;"
         offset="1"
         id="stop4072" />
    </linearGradient>
    <linearGradient
       inkscape:collect="always"
       xlink:href="#linearGradient4076"
       id="linearGradient4082"
       x1="711.68848"
       y1="-2.6155417"
       x2="554.07379"
       y2="305.9559"
       gradientUnits="userSpaceOnUse" />
  </defs>
  <sodipodi:namedview
     id="base"
     pagecolor="#ffffff"
     bordercolor="#666666"
     borderopacity="1.0"
     inkscape:pageopacity="0.0"
     inkscape:pageshadow="2"
     inkscape:zoom="0.49497475"
     inkscape:cx="236.96823"
     inkscape:cy="578.49717"
     inkscape:document-units="px"
     inkscape:current-layer="layer1"
     showgrid="false"
     inkscape:window-width="1303"
     inkscape:window-height="744"
     inkscape:window-x="65"
     inkscape:window-y="24"
     inkscape:window-maximized="1" />
  <metadata
     id="metadata7">
    <rdf:RDF>
      <cc:Work
         rdf:about="">
        <dc:format>image/svg+xml</dc:format>
        <dc:type
           rdf:resource="http://purl.org/dc/dcmitype/StillImage" />
        <dc:title></dc:title>
      </cc:Work>
    </rdf:RDF>
  </metadata>
  <g
     inkscape:label="Layer 1"
     inkscape:groupmode="layer"
     id="layer1">
    <path
       style="fill:url(#linearGradient4082);stroke:none;fill-opacity:1;opacity:0.8600823"
       d="M 3.6170895,1.1576876 55.714286,101.6479 c 0,0 166.071554,-32.172797 412.404754,82.53276 212.55884,98.97847 285.45476,251.98847 285.45476,251.98847 L 751.55349,-4.2573797 z"
       id="path4066"
       inkscape:connector-curvature="0"
       sodipodi:nodetypes="ccsccc" />
    <path
       style="fill:#186d96;fill-opacity:1;stroke:none"
       d="M -0.05076274,-0.23907154 59.852823,-1.2058954 13.182746,1052.6457 0.1823317,1052.975 z"
       id="path2985"
       inkscape:connector-curvature="0"
       sodipodi:nodetypes="ccccc" />
    <path
       style="fill:#fcd116;fill-opacity:1;stroke:none"
       d="M 62.290051,-1.3317985 84.648269,0.09677289 15,1055.225 l 8.00943,0.1677 z"
       id="path3755"
       inkscape:connector-curvature="0"
       sodipodi:nodetypes="ccccc" />
    <rect
       style="fill:#ffffff;fill-opacity:1;stroke:none"
       id="rect3936"
       width="1062.8572"
       height="388.57141"
       x="105.71429"
       y="1112.3623" />
    <path
       style="fill:#32639c;stroke:none;stroke-width:1px;stroke-linecap:butt;stroke-linejoin:miter;stroke-opacity:1;fill-opacity:0.14117647999999999;opacity:0.44855967"
       d="m 401.42857,761.6479 0,32.85714 85.71429,0 L 475,781.6479 l 141.42857,0 0,-20.71429 z"
       id="path4056"
       inkscape:connector-curvature="0" />
    <path
       style="fill:#32639c;stroke:none;stroke-width:1px;stroke-linecap:butt;stroke-linejoin:miter;stroke-opacity:1;fill-opacity:0.14117647999999999;opacity:0.44855967"
       d="m 332.85714,808.07647 0,32.14286 138.57143,0 -12.5,-12.5 223.21429,0 0,-20.35715 z"
       id="path4058"
       inkscape:connector-curvature="0" />
    <path
       style="fill:#32639c;stroke:none;stroke-width:1px;stroke-linecap:butt;stroke-linejoin:miter;stroke-opacity:1;fill-opacity:0.14117647999999999;opacity:0.44855967"
       d="m 254.28571,849.50504 0,32.14286 197.85715,0 -12.85715,-14.28572 327.85715,0 0,-17.85714 z"
       id="path4060"
       inkscape:connector-curvature="0" />
    <path
       style="fill:#32639c;stroke:none;stroke-width:1px;stroke-linecap:butt;stroke-linejoin:miter;stroke-opacity:1;fill-opacity:0.14117647999999999;opacity:0.44855967"
       d="m 232.14286,891.6479 0,30.71428 c 0,0 80.71428,-2.14285 140.71428,19.28572 60,21.42857 89.28572,58.5714 89.28572,58.5714 l 375.2736,-105.94599 z"
       id="path4062"
       inkscape:connector-curvature="0" />
    <path
       style="fill:#32639c;stroke:none;stroke-width:1px;stroke-linecap:butt;stroke-linejoin:miter;stroke-opacity:1;fill-opacity:0.14117647999999999;opacity:0.44855967"
       d="m 830.34539,918.51697 c 0,0 -149.50257,35.86042 -270.72088,71.21575 -121.21831,35.35538 -145.96704,42.93148 -173.74624,56.06348 -27.77919,13.132 -42.4264,22.2233 -37.37564,32.8299 5.05076,10.6067 25.75889,9.0914 50.50763,2.5254 24.74873,-6.566 85.35789,-24.7487 140.4112,-41.4162 55.05331,-16.6675 108.08632,-33.3351 108.08632,-33.3351 0,0 -39.90102,4.5457 -40.4061,-4.0406 -0.50508,-8.58627 25.25381,-17.67764 45.96194,-25.25378 20.70813,-7.57615 177.28177,-58.58885 177.28177,-58.58885 z"
       id="path4064"
       inkscape:connector-curvature="0" />
  </g>
</svg>
